<?xml version="1.0" standalone="no"?>
<!DOCTYPE svg PUBLIC "-//W3C//DTD SVG 20010904//EN"
 "http://www.w3.org/TR/2001/REC-SVG-20010904/DTD/svg10.dtd">
<svg version="1.0" xmlns="http://www.w3.org/2000/svg"
 width="50.000000pt" height="50.000000pt" viewBox="0 0 50.000000 50.000000"
 preserveAspectRatio="xMidYMid meet">

<g transform="translate(0.000000,50.000000) scale(0.100000,-0.100000)"
fill="#000000" stroke="none">
<path d="M133 336 c-67 -45 -122 -83 -122 -86 0 -3 56 -42 124 -88 l125 -82 0
70 0 70 105 -70 105 -70 0 170 0 170 -105 -70 -104 -70 -3 68 -3 69 -122 -81z
m105 -150 l-3 -64 -90 59 c-50 32 -90 63 -90 69 0 6 40 37 90 69 l90 59 3 -64
c2 -35 2 -93 0 -128z m210 0 l-3 -64 -90 59 c-49 32 -90 63 -90 69 0 6 41 37
90 69 l90 59 3 -64 c2 -35 2 -93 0 -128z"/>
</g>
</svg>
